<?xml version="1.0" encoding="iso-8859-1"?>
<!-- Generator: Adobe Illustrator 22.1.0, SVG Export Plug-In . SVG Version: 6.00 Build 0)  -->
<svg version="1.1" xmlns="http://www.w3.org/2000/svg" xmlns:xlink="http://www.w3.org/1999/xlink" x="0px" y="0px"
	 viewBox="0 0 50 50" style="enable-background:new 0 0 50 50;" xml:space="preserve">
<g id="Layer_1">
	<path d="M1,49h48V1H1V49z M3,3h44v44H3V3z"/>
	<path d="M14,6h-3c-2.757,0-5,2.243-5,5v28c0,2.757,2.243,5,5,5h3c2.757,0,5-2.243,5-5V11C19,8.243,16.757,6,14,6z M17,39
		c0,1.654-1.346,3-3,3h-3c-1.654,0-3-1.346-3-3V11c0-1.654,1.346-3,3-3h3c1.654,0,3,1.346,3,3V39z"/>
	<path d="M22,16h22V6H22V16z M24,8h18v6H24V8z"/>
	<rect x="23" y="27" width="4" height="2"/>
	<rect x="31" y="27" width="4" height="2"/>
	<rect x="39" y="27" width="4" height="2"/>
	<rect x="23" y="32" width="4" height="2"/>
	<rect x="31" y="32" width="4" height="2"/>
	<rect x="39" y="32" width="4" height="2"/>
	<rect x="23" y="37" width="4" height="2"/>
	<rect x="31" y="37" width="4" height="2"/>
	<rect x="39" y="37" width="4" height="2"/>
	<rect x="23" y="42" width="4" height="2"/>
	<rect x="31" y="42" width="4" height="2"/>
	<rect x="39" y="42" width="4" height="2"/>
	<path d="M22,24h8v-6h-8V24z M24,20h4v2h-4V20z"/>
	<path d="M36,24h8v-6h-8V24z M38,20h4v2h-4V20z"/>
</g>
<g>
</g>
</svg>
