<?xml version="1.0" encoding="iso-8859-1"?>
<!-- Generator: Adobe Illustrator 22.1.0, SVG Export Plug-In . SVG Version: 6.00 Build 0)  -->
<svg version="1.1" id="Layer_1" xmlns="http://www.w3.org/2000/svg" xmlns:xlink="http://www.w3.org/1999/xlink" x="0px" y="0px"
	 viewBox="0 0 50 50" style="enable-background:new 0 0 50 50;" xml:space="preserve">
<g id="Layer_1_1_">
	<path d="M11,7H5v42h34v-6h6V1H11V7z M37,47H7V9h4h19v7h7v27V47z M32,10.414L35.586,14H32V10.414z M13,3h30v38h-4V14.586L31.414,7
		H13V3z"/>
	<path d="M22,14H10v12h12V14z M20,24h-8v-8h8V24z"/>
	<rect x="25" y="19" width="9" height="2"/>
	<rect x="25" y="24" width="9" height="2"/>
	<rect x="10" y="29" width="15" height="2"/>
	<rect x="28" y="29" width="6" height="2"/>
	<rect x="10" y="34" width="6" height="2"/>
	<rect x="19" y="34" width="15" height="2"/>
	<rect x="10" y="39" width="14" height="2"/>
	<rect x="27" y="39" width="7" height="2"/>
</g>
</svg>
