<?xml version="1.0" encoding="UTF-8" standalone="no"?> <svg xmlns="http://www.w3.org/2000/svg" viewBox="0 0 46.86 40.73"><defs><style>.cls-1{fill:none;stroke:#000;stroke-linecap:round;stroke-linejoin:round;stroke-width:2px;}</style></defs><title>Asset 17</title><g id="Layer_2" data-name="Layer 2"><g id="Layer_2-2" data-name="Layer 2"><path class="cls-1" d="M44.78,39.73H2.08A1.08,1.08,0,0,1,1,38.65V16a1.27,1.27,0,0,1,1.27-1.27L22.9,26.4a1.08,1.08,0,0,0,1.07,0L44.59,14.68A1.27,1.27,0,0,1,45.86,16v22.7A1.08,1.08,0,0,1,44.78,39.73Z"/><path class="cls-1" d="M24,26.4l18.6-10.57a1.08,1.08,0,0,0,.55-.94V2.08A1.08,1.08,0,0,0,42,1H4.82A1.08,1.08,0,0,0,3.74,2.08V14.89a1.08,1.08,0,0,0,.55.94L22.9,26.4A1.08,1.08,0,0,0,24,26.4Z"/><line class="cls-1" x1="1.91" y1="39.5" x2="18.47" y2="24.5"/><line class="cls-1" x1="45.41" y1="39.5" x2="28.86" y2="24.5"/></g></g></svg>